<?xml version="1.0" encoding="utf-8"?>
<!-- Generator: Adobe Illustrator 21.0.1, SVG Export Plug-In . SVG Version: 6.00 Build 0)  -->
<svg version="1.1" id="spaceship_launch_illustration"
	 xmlns="http://www.w3.org/2000/svg" xmlns:xlink="http://www.w3.org/1999/xlink" x="0px" y="0px" width="1400px" height="980px"
	 viewBox="0 0 1400 980" enable-background="new 0 0 1400 980" xml:space="preserve">
<g id="background">
	<rect fill="#4A626E" width="1400" height="980"/>
	<g>
		<path fill="#405059" d="M1196.4,552.4C1196.4,278.2,974.1,56,700,56S203.6,278.2,203.6,552.4c0,182.1,98.1,341.3,244.3,427.6
			h504.2C1098.3,893.6,1196.4,734.5,1196.4,552.4z"/>
	</g>
</g>
<g id="dust">
	<path fill="#FAF6EF" d="M1198,805.5c-12.4-5.1-25.9-7.9-40.2-7.9c-50.7,0-93.1,35.6-102.9,82.9c-3.7-0.5-7.5-0.7-11.3-0.7
		c-44.9,0-82.2,32-90,74.3c-6.7-2.1-13.8-3.3-21.2-3.3c-23.4,0-44.1,11.5-56.5,29.2h524l0-238.4c-21.8-17.4-49.5-27.8-79.7-27.8
		C1262,713.8,1212.9,752.6,1198,805.5z"/>
	<path fill="#FAF6EF" d="M467.5,950.8c-7.4,0-14.5,1.2-21.2,3.3c-7.7-42.2-45.1-74.3-90-74.3c-3.8,0-7.6,0.3-11.3,0.7
		c-9.8-47.3-52.1-82.9-102.9-82.9c-14.2,0-27.8,2.8-40.2,7.9c-14.9-52.9-64-91.8-122.3-91.8c-30.2,0-57.9,10.4-79.7,27.8L0,980h524
		C511.6,962.4,490.9,950.8,467.5,950.8z"/>
</g>
<g id="spaceship">
	<g>
		<path fill="#D17A3D" d="M763.7,223.4H635.5c-0.6,3.6-0.9,6.6-1.1,9h130.5C764.7,230,764.3,227,763.7,223.4z"/>
		<path fill="#F18D46" d="M633.4,230.8c-0.1,1.1-0.2,2-0.2,2.7v428.7H766V233.5c0-0.7-0.1-1.6-0.2-2.7H633.4z"/>
		<path fill="#F18D46" d="M699.6,145.1c-27.2,0-60.2,53.9-65.1,78.4h130.2C759.8,199,726.9,145.1,699.6,145.1z"/>
		<path opacity="0.15" fill="#FFFFFF" d="M755.2,685.5V233.7c0-12.8-20.1-88.6-56.4-88.6c-1.2,0-2.3,0.1-3.4,0.2
			c-3.2,0.3-6.3,1.1-9.2,2.3c32.2,13.1,44,74.6,44,86.1v451.8H755.2z"/>
	</g>
	<linearGradient id="SVGID_1_" gradientUnits="userSpaceOnUse" x1="802.119" y1="980" x2="802.119" y2="768.4183">
		<stop  offset="0" style="stop-color:#F2ECDF;stop-opacity:1.000000e-02"/>
		<stop  offset="0.2002" style="stop-color:#F3EADB;stop-opacity:0.1481"/>
		<stop  offset="0.4075" style="stop-color:#F4E6CE;stop-opacity:0.2912"/>
		<stop  offset="0.6183" style="stop-color:#F7DDBA;stop-opacity:0.4366"/>
		<stop  offset="0.83" style="stop-color:#FBD29D;stop-opacity:0.5827"/>
		<stop  offset="1" style="stop-color:#FFC780;stop-opacity:0.7"/>
	</linearGradient>
	<polygon fill="url(#SVGID_1_)" points="903.7,980 700.6,980 741.4,768.4 862.8,768.4 	"/>
	<g>
		<path fill="#F1E5D0" d="M767.5,408.5c-0.1,0.8-0.1,1.5-0.1,2v317.5h69.3V410.5c0-0.5,0-1.2-0.1-2H767.5z"/>
		<rect x="767.4" y="681" fill="#E2CDA6" width="69.3" height="8.5"/>
		<rect x="767.4" y="718.7" fill="#E2CDA6" width="69.3" height="7.2"/>
		<path fill="#F1E5D0" d="M802.1,345.8c-21.5,0-31.4,37.9-34,55.1h67.9C833.5,383.7,823.7,345.8,802.1,345.8z"/>
		<path fill="#E2CDA6" d="M836.1,399.9h-67.9c-0.3,2-0.5,8-0.6,9.4h69.2C836.6,407.9,836.4,401.9,836.1,399.9z"/>
		<polygon fill="#EDDFC4" points="836.8,725.5 767.4,725.5 741.4,753.1 862.8,753.1 		"/>
		<rect x="741.4" y="753.1" fill="#405059" width="121.4" height="15.3"/>
		<g>
			<polygon fill="#4A5962" points="805.3,455.6 822.1,455.6 822.1,480.8 805.3,480.8 805.3,489.3 836.8,489.3 836.8,480.8 
				830.5,480.8 830.5,455.6 836.8,455.6 836.8,447.2 805.3,447.2 			"/>
			<rect x="822.1" y="497.7" fill="#4A5962" width="8.4" height="25.3"/>
			<polygon fill="#4A5962" points="830.5,531.3 805.3,531.3 805.3,573.4 813.7,573.4 813.7,539.8 822.1,539.8 822.1,573.4 
				836.8,573.4 836.8,565 830.5,565 			"/>
			<path fill="#4A5962" d="M805.3,623.9h31.5v-8.4h-6.3v-25.3h6.3v-8.4h-31.5V623.9z"/>
		</g>
		<path opacity="0.3" fill="#FFFFFF" d="M831.5,670.2V408.1c0-9-7.8-62.1-29.4-62.2c-0.6,0-1.2,0.1-1.8,0.1
			c-1.7,0.2-3.3,0.8-4.8,1.6c16.8,9.2,23,52.4,23,60.5v262.1"/>
		<polygon opacity="0.1" points="862.8,753.1 767.4,697 767.4,670.7 836.8,670.7 836.8,725.5 		"/>
	</g>
	<linearGradient id="SVGID_2_" gradientUnits="userSpaceOnUse" x1="597.881" y1="977.6277" x2="597.881" y2="768.4183">
		<stop  offset="0" style="stop-color:#F2ECDF;stop-opacity:1.000000e-02"/>
		<stop  offset="0.2002" style="stop-color:#F3EADB;stop-opacity:0.1481"/>
		<stop  offset="0.4075" style="stop-color:#F4E6CE;stop-opacity:0.2912"/>
		<stop  offset="0.6183" style="stop-color:#F7DDBA;stop-opacity:0.4366"/>
		<stop  offset="0.83" style="stop-color:#FBD29D;stop-opacity:0.5827"/>
		<stop  offset="1" style="stop-color:#FFC780;stop-opacity:0.7"/>
	</linearGradient>
	<polygon fill="url(#SVGID_2_)" points="699.4,977.6 496.3,977.6 537.2,768.4 658.6,768.4 	"/>
	<g>
		<path fill="#F1E5D0" d="M562.6,408.5c-0.1,0.8-0.1,1.5-0.1,2v317.5h69.3V410.5c0-0.5,0-1.2-0.1-2H562.6z"/>
		<rect x="562.6" y="681" fill="#E2CDA6" width="69.3" height="8.5"/>
		<rect x="562.6" y="718.7" fill="#E2CDA6" width="69.3" height="7.2"/>
		<path fill="#F1E5D0" d="M597.2,345.8c-21.5,0-31.4,37.9-34,55.1h67.9C628.6,383.7,618.8,345.8,597.2,345.8z"/>
		<path fill="#E2CDA6" d="M631.2,399.9h-67.9c-0.3,2-0.5,8-0.6,9.4h69.2C631.7,407.9,631.5,401.9,631.2,399.9z"/>
		<polygon fill="#EDDFC4" points="631.9,725.5 562.6,725.5 536.5,753.1 657.9,753.1 		"/>
		<rect x="536.5" y="753.1" fill="#405059" width="121.4" height="15.3"/>
		<path opacity="0.3" fill="#FFFFFF" d="M626.6,637V408.1c0-9-7.8-62.1-29.4-62.2c-0.6,0-1.2,0.1-1.8,0.1c-1.7,0.2-3.3,0.8-4.8,1.6
			c16.8,9.2,23,52.4,23,60.5V637"/>
		<polygon opacity="0.1" points="657.9,753.1 562.6,697 562.6,670.7 631.9,670.7 631.9,725.5 		"/>
	</g>
	<g>
		<linearGradient id="SVGID_3_" gradientUnits="userSpaceOnUse" x1="700" y1="1017.1985" x2="700" y2="699.2837">
			<stop  offset="0" style="stop-color:#95BED3;stop-opacity:0"/>
			<stop  offset="1" style="stop-color:#FFC780;stop-opacity:0.9"/>
		</linearGradient>
		<polygon fill="url(#SVGID_3_)" points="808.1,979.2 591.9,979.2 639.3,699.1 758.3,699.1 		"/>
		<linearGradient id="SVGID_4_" gradientUnits="userSpaceOnUse" x1="700" y1="1017.1985" x2="700" y2="699.2837">
			<stop  offset="0" style="stop-color:#95BED3;stop-opacity:0"/>
			<stop  offset="1" style="stop-color:#FFC780;stop-opacity:0.9"/>
		</linearGradient>
		<polygon opacity="0.5" fill="url(#SVGID_4_)" points="768.8,979.2 631.2,979.2 679.4,699.1 719.6,699.1 		"/>
	</g>
	<g>
		<g>
			<polygon fill="#E6D5B3" points="523.6,670.2 523.6,636.9 653.8,463.2 748,463.2 875.8,637 875.8,670.2 			"/>
			<polygon fill="#F0E4CE" points="875.8,637 875.8,671.6 523.6,671.6 523.6,636.9 			"/>
			<polygon fill="#F5EDDF" points="523.6,641.2 523.6,637 531.7,629.7 866.9,629.7 875.8,636.9 875.8,641.2 			"/>
			<polygon fill="#E9D9BB" points="523.6,636.9 532.1,625.4 867.2,625.4 875.8,637 			"/>
			<polygon opacity="0.2" fill="#BFAE8D" points="763.1,587 763.1,484 748.2,464 641.1,671.6 790.5,671.6 790.5,638.2 			"/>
			<polygon opacity="0.2" fill="#BFAE8D" points="638.7,587 638.7,484 653.6,464 760.7,671.6 611.3,671.6 611.3,638.2 			"/>
		</g>
		<path fill="#F1E5D0" d="M746.9,598.3V334.1c0-31.7-11.7-62.2-32.6-84.6c-8.1-8.7-21.3-8.7-29.4,0c-20.8,22.4-32.6,52.9-32.6,84.6
			v264.3L625,647.9v34.1h149.4v-34.1L746.9,598.3z"/>
		<rect x="651.7" y="590.1" fill="#E2CDA6" width="96" height="8.5"/>
		<polygon fill="#F1E5D0" points="774.4,647.9 625,647.9 652.4,598.8 746.6,598.8 		"/>
		<g>
			<rect x="639.9" y="662.7" fill="#364750" width="119.5" height="36.4"/>
		</g>
		<rect x="625" y="647.9" fill="#405059" width="149.4" height="35.5"/>
		<g>
			<rect x="696.8" y="647.9" fill="#364750" width="6.4" height="35.5"/>
		</g>
		<g>
			<rect x="696.8" y="613.8" fill="#C1B391" width="6.4" height="34.1"/>
		</g>
		<polyline opacity="0.2" fill="#95BED3" points="731,683.5 731,699.1 743.8,699.1 743.8,683.5 		"/>
		<path opacity="0.3" fill="#FFFFFF" d="M755.2,683.5V648L736,598.8V309.5c0-9.3-10.2-62.2-38.5-66.3c-1.1-0.2-8.6,3.8-8.6,3.8
			c20.7,13.1,28.5,54.4,28.5,62.5v289.3l19.2,49.2v35.4"/>
		
			<ellipse transform="matrix(0.7071 -0.7071 0.7071 0.7071 -42.0352 597.3088)" fill="#E2CDA6" cx="700" cy="349.4" rx="30.8" ry="30.8"/>
		<g>
			<path fill="#7DA0B3" d="M681.5,367.8c-10.2-10.2-10.2-26.7,0-36.9s26.7-10.2,36.9,0"/>
			<path fill="#537F98" d="M718.5,330.9c10.2,10.2,10.2,26.7,0,36.9c-10.2,10.2-26.7,10.2-36.9,0"/>
		</g>
	</g>
</g>
<g id="stars">
	<circle fill="#537F98" cx="816.1" cy="266.2" r="6.4"/>
	<circle fill="#537F98" cx="462.9" cy="380.2" r="5.3"/>
	<circle fill="#537F98" cx="401.5" cy="254.4" r="5.2"/>
	<circle fill="#537F98" cx="544.1" cy="218.1" r="4"/>
	<circle fill="#537F98" cx="1063" cy="347.4" r="5.3"/>
	<circle fill="#537F98" cx="311.3" cy="627.9" r="4"/>
	<circle fill="#537F98" cx="974.4" cy="593.3" r="5.3"/>
	<circle fill="#537F98" cx="911.4" cy="318.6" r="5.2"/>
	<circle fill="#537F98" cx="455" cy="530.3" r="5.2"/>
	<circle fill="#537F98" cx="1070.8" cy="487.8" r="5.2"/>
	<circle fill="#537F98" cx="957.8" cy="431.2" r="4"/>
	<circle fill="#537F98" cx="852.7" cy="157.8" r="4"/>
	<circle fill="#537F98" cx="689.8" cy="108.3" r="3.8"/>
	<circle fill="#537F98" cx="325.7" cy="452.1" r="6.5"/>
</g>
<g id="moon">
	<path fill="#D8CFB9" d="M939.6,218.1c14.4-14.4,16.1-36.6,5.3-52.9c2.2,1.5,4.4,3.2,6.4,5.2c16.4,16.4,16.4,43,0,59.4
		c-16.4,16.4-43,16.4-59.4,0c-2-2-3.7-4.1-5.2-6.4C903,234.2,925.2,232.5,939.6,218.1"/>
	<path fill="#F3EAD7" d="M944.9,165.1c-16.3-10.9-38.6-9.2-53,5.3c-14.4,14.4-16.2,36.7-5.3,53c16.3,10.9,38.6,9.1,53-5.3
		C954,203.7,955.8,181.4,944.9,165.1"/>
</g>
<g id="yellow_stars">
	<path fill="#FFCC66" d="M939.2,759.6c-4.2-0.7-7.5-3.9-8.1-8.1c0-0.1-0.2-0.1-0.2,0c-0.6,4.2-3.9,7.4-8.1,8.1c-0.1,0-0.1,0.2,0,0.2
		c4.2,0.6,7.5,3.9,8.1,8.1c0,0.1,0.2,0.1,0.2,0c0.6-4.2,3.9-7.4,8.1-8.1C939.3,759.8,939.3,759.6,939.2,759.6z"/>
	<path fill="#FFCC66" d="M901.9,696.1c0-0.2-0.3-0.2-0.3,0c-1,6.2-5.9,11.1-12.1,12.1c-0.2,0-0.2,0.3,0,0.3
		c6.2,1,11.2,5.9,12.1,12.1c0,0.2,0.3,0.2,0.3,0c1-6.2,5.9-11.1,12.1-12.1c0.2,0,0.2-0.3,0-0.3C907.7,707.2,902.8,702.3,901.9,696.1
		z"/>
	<path fill="#FFCC66" d="M469.2,751.5c0-0.1-0.2-0.1-0.2,0c-0.6,4.2-3.9,7.4-8.1,8.1c-0.1,0-0.1,0.2,0,0.2c4.2,0.6,7.5,3.9,8.1,8.1
		c0,0.1,0.2,0.1,0.2,0c0.6-4.2,3.9-7.4,8.1-8.1c0.1,0,0.1-0.2,0-0.2C473.1,758.9,469.8,755.7,469.2,751.5z"/>
	<path fill="#FFCC66" d="M498.5,696.1c0-0.2-0.3-0.2-0.3,0c-1,6.2-5.9,11.1-12.1,12.1c-0.2,0-0.2,0.3,0,0.3
		c6.3,1,11.2,5.9,12.1,12.1c0,0.2,0.3,0.2,0.3,0c1-6.2,5.9-11.1,12.1-12.1c0.2,0,0.2-0.3,0-0.3C504.4,707.2,499.4,702.3,498.5,696.1
		z"/>
</g>
</svg>
